<svg style="display:none;"><symbol id="all" viewBox="-38.512 -38.515 77.024 77.029"><path d="M-38.512,3.981H-6.64v31.872h-31.872V3.981z M38.512,19.918L19.92,38.515L1.328,19.918L19.92,1.331 L38.512,19.918z M3.984-38.515h31.872v31.872H3.984V-38.515z M-38.512-38.515H-6.64v31.872h-31.872V-38.515z" transform="matrix(1 0 0 -1 0 0)"></path></symbol><symbol id="cart" viewBox="-41.321 -39.01 82.643 78.021"><path d="M-24.852,26.367l5.084-26.24h50.782l7.054,26.24H-24.852L-24.852,26.367z M-11.052-26.677 c-2.606,0-4.752-2.141-4.752-4.755c0-2.616,2.136-4.753,4.752-4.753c2.61,0,4.755,2.146,4.755,4.753 C-6.297-28.813-8.433-26.677-11.052-26.677L-11.052-26.677z M-11.052-23.846c4.178,0,7.582-3.408,7.582-7.584 c0-4.167-3.415-7.58-7.582-7.58c-4.175,0-7.58,3.406-7.58,7.58C-18.632-27.26-15.218-23.846-11.052-23.846z M23.674-26.677 c-2.606,0-4.753-2.141-4.753-4.755c0-2.616,2.133-4.753,4.753-4.753c2.608,0,4.755,2.146,4.755,4.753 C28.429-28.813,26.292-26.677,23.674-26.677L23.674-26.677z M23.674-23.846c4.177,0,7.582-3.408,7.582-7.584 c0-4.167-3.415-7.58-7.582-7.58c-4.176,0-7.582,3.406-7.582,7.58C16.092-27.26,19.507-23.846,23.674-23.846z M-39.807,39.01h11.342 c0.572,0,1.277-0.586,1.386-1.148l1.679-8.664h65.313c0.89,0,1.595-0.921,1.364-1.779l-7.813-29.07 c-0.134-0.506-0.841-1.051-1.365-1.051h-51.316l2.407-12.414h49.008c2.016,0,2.019-2.83,0-2.83h-50.174 c-0.572,0-1.279,0.586-1.388,1.149L-29.63,36.181h-10.176C-41.824,36.181-41.829,39.01-39.807,39.01L-39.807,39.01z" transform="matrix(1 0 0 -1 0 0)"></path></symbol><symbol id="clothes" viewBox="-37.255 -48.43 74.51 96.859"><path d="M14.902,3.724v-3.726l7.45,26.078V11.178l14.902,7.447l-7.451,22.354L14.902,48.43 c0,0-2.794-13.84-14.902-13.84c-12.107,0-14.902,13.84-14.902,13.84l-14.901-7.451l-7.451-22.354l14.902-7.447v14.898l7.45-26.078 v3.725L14.902,3.724L14.902,3.724z M14.902-0.002v-3.726h-29.805v3.726c0,0-8.382-6.753-14.901-18.628 c-6.521-11.875-7.451-22.353-7.451-22.353S-23.284-48.43,0-48.43s37.255,7.447,37.255,7.447s-2.794,13.737-7.451,22.353 C25.146-10.011,14.902-0.002,14.902-0.002z" transform="matrix(1 0 0 -1 0 0)"></path></symbol><symbol id="downarrow" viewbox="-16.535 -9.391 33.069 18.782"><line fill="none" stroke="#040000" stroke-width="2" x1="-15.806" y1="8.707" x2="0.55" y2="-8.707" transform="matrix(1 0 0 -1 0 0)"><line fill="none" stroke="#040000" stroke-width="2" x1="0.55" y1="-8.707" x2="15.781" y2="8.707"></line></line></symbol><symbol id="fresh" viewBox="-35.919 -23.533 71.839 47.066"><path d="M15.293,16.903C29.711,16.895,35.918-0.392,35.92-5.608c0.002-2.506-3.31-5.941-4.414-7.395 c-5.59,3.147-11.178,3.39-8.486,2.422c2.69-0.969,6.347-4.6,6.347-4.6s-9.289-2.664-13.936-2.664 c-3.401,0-14.71,3.391-15.869,3.248c-7.104-1.916-11.795-0.947-9.312-0.584s4.785,2.223,4.785,2.223s-19.73,6.322-20.721,6.25 c-1.656-0.121-8.807-13.92-10.233-16.825c3.127,15.978,2.506,23.24,0,40.431c1.265-1.818,8.784-21.669,10.164-21.669 c0.838,0,10.47,7.989,21.137,14.267c0,0,1.484,4.766-3.921,11.811c-5.887,8.3,9.237-9.278,9.237-9.278S11.202,16.906,15.293,16.903 z M25.434,7.333c-0.838,0-1.518-1.192-1.518-2.663s0.68-2.663,1.518-2.663s1.518,1.192,1.518,2.663S26.271,7.333,25.434,7.333z" transform="matrix(1 0 0 -1 0 0)"></path></symbol><symbol id="home" viewBox="-46.893 -38.851 93.786 77.701"><path d="M0.029,38.851L-46.893-8.077h19.05v-30.773h17.834c3.05,6.627,8.099,12.145,14.377,15.783 c-0.021,1.391-0.034,2.957-0.01,5c-7.229-3.599-13.203-9.338-17.088-16.387h-10.717v30.774h-13.088L0,32.854L36.535-3.681H23.446 v-30.774H11.723v-4.396h16.12v30.773h19.05L0.029,38.851z" transform="matrix(1 0 0 -1 0 0)"></path></symbol><symbol id="market" viewBox="-43.106 -42.127 86.213 84.255"><path d="M40.342-37.969h-6.081V-2.32c5.066,0.05,8.846,5.303,8.846,10.005c0,0.237-0.041,0.471-0.12,0.694 L34.214,33.13l-0.96,7.193c-0.138,1.033-1.017,1.804-2.057,1.804h-62.393c-1.036,0-1.913-0.764-2.057-1.788l-1.07-7.569 L-42.986,8.38c-0.08-0.223-0.12-0.458-0.12-0.696c0-4.703,3.778-9.958,8.847-10.007V-37.97h-6.083c-1.148,0-2.079-0.93-2.079-2.079 s0.93-2.078,2.079-2.078h80.684c1.149,0,2.08,0.929,2.08,2.078C42.421-38.898,41.491-37.969,40.342-37.969z M21.883,29.7 c1.101,0.322,2.258-0.311,2.578-1.413l4.872-16.7c0.323-1.102-0.31-2.256-1.413-2.577c-0.195-0.057-0.389-0.083-0.583-0.083 c-0.899,0-1.73,0.588-1.996,1.496l-4.871,16.699C20.15,28.225,20.781,29.378,21.883,29.7z M10.477,29.755 c1.136,0.199,2.203-0.575,2.394-1.707l2.794-16.7c0.192-1.132-0.574-2.204-1.706-2.393c-0.117-0.021-0.232-0.028-0.344-0.028 c-0.998,0-1.878,0.718-2.048,1.735l-2.796,16.7C8.58,28.494,9.345,29.566,10.477,29.755z M-2.065,27.705 c0,1.148,0.93,2.078,2.078,2.078c1.148,0,2.079-0.929,2.079-2.078v-16.7c0-1.149-0.931-2.078-2.079-2.078 c-1.147,0-2.078,0.929-2.078,2.078V27.705z M-12.897,28.048c0.19,1.132,1.262,1.906,2.393,1.707 c1.132-0.188,1.896-1.261,1.706-2.393l-2.794-16.7c-0.171-1.017-1.05-1.735-2.048-1.735c-0.114,0-0.229,0.007-0.345,0.028 c-1.132,0.189-1.896,1.26-1.707,2.393L-12.897,28.048z M-29.334,11.587l4.874,16.7c0.322,1.102,1.472,1.735,2.577,1.413 c1.101-0.322,1.734-1.476,1.413-2.578l-4.874-16.7c-0.265-0.908-1.094-1.496-1.994-1.496c-0.193,0-0.389,0.026-0.583,0.083 C-29.022,9.33-29.655,10.485-29.334,11.587z M-8.693-37.969h-21.41v36.867c1.065,0.668,1.999,1.566,2.752,2.61 c1.606-2.233,4.026-3.837,6.837-3.837c2.812,0,5.232,1.604,6.838,3.837c1.24-1.722,2.967-3.063,4.983-3.589L-8.693-37.969 L-8.693-37.969z M30.104-37.969H-4.537v36.026C-2.713-1.346-1.147-0.084,0,1.509c1.606-2.232,4.026-3.835,6.838-3.835 c2.813,0,5.233,1.604,6.838,3.835c1.608-2.232,4.027-3.835,6.84-3.835c2.813,0,5.23,1.604,6.838,3.835 c0.75-1.044,1.688-1.943,2.751-2.612L30.104-37.969L30.104-37.969z M-12.881-11.795c0,1.813-1.467,3.278-3.28,3.278 c-1.81,0-3.277-1.466-3.277-3.278c0-1.097,0.543-2.063,1.372-2.656V-25.61c-0.829-0.596-1.372-1.563-1.372-2.66 c0-1.813,1.467-3.279,3.277-3.279c1.813,0,3.28,1.466,3.28,3.279c0,1.164-0.611,2.18-1.523,2.761v10.953 C-13.492-13.976-12.881-12.957-12.881-11.795z M7.304-16.891c0.168-0.104,0.355-0.154,0.541-0.154c0.35,0,0.692,0.178,0.888,0.498 l4.926,8.063c0.3,0.488,0.143,1.129-0.344,1.429c-0.492,0.301-1.13,0.146-1.43-0.344l-4.925-8.064 C6.659-15.951,6.815-16.593,7.304-16.891z M17.557-11.08c-0.493,0.296-1.127,0.134-1.423-0.36L4.49-31.018 c-0.294-0.493-0.13-1.131,0.364-1.425c0.165-0.1,0.348-0.146,0.529-0.146c0.354,0,0.699,0.181,0.893,0.508L17.92-12.506 C18.214-12.012,18.051-11.375,17.557-11.08z" transform="matrix(1 0 0 -1 0 0)"></path></symbol><symbol id="message" viewBox="-37.985 -29.906 75.972 59.813"><path d="M33.238,29.906h-66.475c-4.823,0-4.749-4.601-4.749-4.601v-50.61c0-4.529,4.749-4.601,4.749-4.601h66.475 c4.526,0,4.748,4.601,4.748,4.601v50.61C37.986,25.305,37.986,29.906,33.238,29.906z M35.612,25.305v-50.61 c0-2.208-2.374-2.3-2.374-2.3h-66.475c0,0-2.375-0.083-2.375,2.3v50.61c0,0,0.148,2.301,2.375,2.301h66.475 C35.899,27.606,35.612,25.305,35.612,25.305z M2.375,0c-2.28-1.436-2.924-1.215-4.748,0s-23.741,18.404-23.741,18.404h-2.374 c0,0,24.176-21.237,26.115-23.005c1.693-1.498,3.038-1.436,4.748,0c1.71,1.437,28.489,23.005,28.489,23.005H28.49 C28.49,18.404,4.655,1.436,2.375,0z" transform="matrix(1 0 0 -1 0 0)"></path></symbol><symbol id="my" viewBox="-28.02 -32.329 56.04 64.657"><path d="M14.359-8.102c-0.629-0.83-0.473-2.026,0.35-2.666c6.068-4.724,9.549-11.887,9.549-19.654 c0-1.052,0.844-1.907,1.882-1.907c1.037,0,1.88,0.854,1.88,1.907c0,8.967-4.016,17.233-11.02,22.677 C16.2-7.118,14.969-7.289,14.359-8.102z M-26.138-32.329c1.036,0,1.88,0.854,1.88,1.907C-24.258-16.794-13.375-5.708,0-5.708 c10.305,0,18.687,8.529,18.687,19.014c0,10.489-8.382,19.022-18.687,19.022c-10.304,0-18.686-8.533-18.686-19.022 c0-6.942,3.806-13.379,9.781-16.692C-20.211-7.259-28.02-18.221-28.02-30.422C-28.02-31.474-27.176-32.329-26.138-32.329z M0,28.505c8.23,0,14.924-6.818,14.924-15.199c0-8.381-6.693-15.2-14.924-15.2c-8.223,0-14.914,6.819-14.914,15.2 C-14.914,21.687-8.223,28.505,0,28.505z" transform="matrix(1 0 0 -1 0 0)"></path></symbol><symbol id="order" viewBox="-23.658 -32.254 47.316 64.508"><path d="M23.658,12.281c0,0.737-0.293,1.444-0.814,1.965L5.65,31.44c-0.521,0.521-1.229,0.814-1.967,0.814h-24.563 c-1.535,0-2.779-1.244-2.779-2.779v-58.95c0-1.535,1.244-2.779,2.779-2.779h41.758c1.535,0,2.779,1.245,2.779,2.779V12.281 L23.658,12.281z M19.488,13.671H5.074v14.414L19.488,13.671z M-20.879-29.475v58.95H3.035c-0.44-0.233-0.74-0.696-0.74-1.228 V12.281c0-0.768,0.622-1.39,1.389-1.39H19.65c0.533,0,0.994,0.3,1.229,0.74v-41.106H-20.879L-20.879-29.475z M-14.295,0.73h28.589 c0.768,0,1.39,0.622,1.39,1.39s-0.622,1.39-1.39,1.39h-28.589c-0.768,0-1.389-0.622-1.389-1.39S-15.063,0.73-14.295,0.73z M14.295-4.511h-28.59c-0.768,0-1.389-0.622-1.389-1.39s0.621-1.39,1.389-1.39h28.59c0.768,0,1.389,0.622,1.389,1.39 S15.063-4.511,14.295-4.511z M14.295-12.531h-28.59c-0.768,0-1.389-0.623-1.389-1.39c0-0.768,0.621-1.39,1.389-1.39h28.59 c0.768,0,1.389,0.623,1.389,1.39C15.684-13.153,15.063-12.531,14.295-12.531z" transform="matrix(1 0 0 -1 0 0)"></path></symbol><symbol id="price" viewBox="-49.645 -11.58 99.289 23.16"><path d="M48.747,2.212l-7.164,7.164c-0.609,0.61-1.432,1.129-2.471,1.559s-1.988,0.638-2.852,0.627L11.62,11.58 c-0.109,0-0.216-0.005-0.32-0.015L-9.413,11.58c-0.108,0-0.215-0.005-0.32-0.015l-20.712,0.015c-0.086,0-0.171-0.005-0.256-0.012 l-15.827,0.012c-0.849,0-1.579-0.303-2.186-0.913c-0.596-0.596-0.908-1.332-0.931-2.204l0.018-16.927 c-0.002-0.851,0.303-1.581,0.91-2.188c0.597-0.596,1.332-0.905,2.206-0.928l15.913,0.012c0.057-0.004,0.113-0.01,0.17-0.012 l20.809,0.015c0.074-0.006,0.147-0.013,0.223-0.015l20.809,0.015c0.073-0.006,0.147-0.013,0.224-0.015l24.607,0.019 c0.871,0,1.828,0.215,2.867,0.645c1.035,0.429,1.861,0.949,2.471,1.558l7.164,7.164c0.596,0.6,0.895,1.332,0.897,2.204 C49.642,0.88,49.343,1.616,48.747,2.212z M42.134-2.195c-0.607-0.607-1.343-0.912-2.204-0.912 c-0.864,0.002-1.597,0.306-2.204,0.912c-0.609,0.61-0.912,1.345-0.912,2.204c0,0.864,0.303,1.597,0.91,2.201 c0.609,0.61,1.342,0.916,2.203,0.916s1.597-0.304,2.207-0.913c0.605-0.607,0.912-1.343,0.912-2.204S42.742-1.585,42.134-2.195z" transform="matrix(1 0 0 -1 0 0)"></path></symbol><symbol id="search" viewBox="-41.616 -39.315 83.232 78.631"><path d="M-7.319-29.28c-18.913,0-34.297,15.384-34.297,34.297s15.384,34.299,34.297,34.299 S26.978,23.93,26.978,5.017S11.594-29.28-7.319-29.28z M-7.319,34.296c-16.146,0-29.278-13.134-29.278-29.279 s13.132-29.278,29.278-29.278c16.142,0,29.278,13.132,29.278,29.278S8.823,34.296-7.319,34.296z M36.591-39.315 c-1.156,0-2.327,0.402-3.274,1.222L14.914-22.2c-2.097,1.811-2.326,4.98-0.516,7.078c1.811,2.098,4.98,2.333,7.078,0.517 L39.879-30.5c2.098-1.81,2.326-4.979,0.516-7.078C39.402-38.728,38.003-39.315,36.591-39.315z" transform="matrix(1 0 0 -1 0 0)"></path></symbol><symbol id="second" viewBox="-34.4 -36.694 68.801 73.388"><path d="M24.766,21.523l2.083,2.082c0.241,0.242,0.405,0.526,0.517,0.827l3.12-3.12 c0.448-0.448,1.035-0.672,1.622-0.672c0.586,0,1.173,0.224,1.621,0.672c0.896,0.896,0.896,2.347,0,3.243l-9.174,9.173 c-0.896,0.896-2.347,0.896-3.242,0c-0.896-0.896-0.896-2.347,0-3.242l3.119-3.12c-0.3-0.112-0.584-0.275-0.826-0.518l-2.233-2.232 c-5.312,4.226-11.895,6.897-19.079,7.375V34.4c0,1.268-1.025,2.294-2.293,2.294s-2.293-1.026-2.293-2.294v-2.409 C-20.192,30.801-34.4,15.901-34.4-2.293c0-18.97,15.431-34.4,34.4-34.4s34.4,15.431,34.4,34.4 C34.4,6.95,30.719,15.336,24.766,21.523z M0-32.107c-16.438,0-29.813,13.375-29.813,29.813S-16.438,27.52,0,27.52 S29.813,14.145,29.813-2.293S16.438-32.107,0-32.107z M2.293,4.164V20.64c0,1.268-1.025,2.293-2.293,2.293 s-2.293-1.025-2.293-2.293V4.164C-4.956,3.213-6.88,0.692-6.88-2.293c0-3.794,3.086-6.88,6.88-6.88s6.88,3.086,6.88,6.88 C6.88,0.692,4.956,3.213,2.293,4.164z M2.293-4.586h-4.586V0h4.586V-4.586L2.293-4.586z" transform="matrix(1 0 0 -1 0 0)"></path></symbol><symbol id="snack" viewBox="-39.174 -30.832 78.346 61.665"><path d="M35.209-8.057c0.441,0.75,0.744,1.566,0.738,2.45c0,0.867-0.308,1.644-0.727,2.343 c0.688,0.342,1.347,0.728,1.9,1.281c1.319,1.325,2.052,3.088,2.052,4.956c0,1.526-0.599,2.863-1.432,4.021 c0.246,0.141,0.459,0.348,0.604,0.604c0.29,0.503,0.273,1.125-0.028,1.628c-8.239,13.524-22.556,21.606-38.32,21.606 c-15.759,0-30.086-8.082-38.32-21.606c-0.302-0.503-0.313-1.125-0.022-1.628c0.146-0.257,0.342-0.464,0.588-0.604 c-0.845-1.18-1.42-2.539-1.415-4.021c0-2.758,1.633-5.09,3.952-6.237c-0.43-0.727-0.737-1.526-0.737-2.433 c0.011-0.878,0.324-1.655,0.737-2.36c-0.682-0.341-1.353-0.722-1.905-1.281c-1.319-1.325-2.052-3.093-2.047-4.961 c0-1.482,0.565-2.779,1.348-3.915c-0.738-0.14-1.331-0.705-1.348-1.482c-0.066-6.068,4.813-11.063,10.89-11.136h56.326 c0.017,0,0.134,0,0.134,0c5.993,0,10.924,4.883,10.996,11.119c0,0.789-0.609,1.359-1.353,1.499 c0.805,1.163,1.353,2.473,1.353,3.915C39.173-11.541,37.535-9.203,35.209-8.057z M27.847,13.317c0,0.006,0.006,0.012,0.013,0.012 h4.257c0.007,0,0.012-0.006,0.012-0.012V9.753c0-0.007-0.005-0.013-0.012-0.013h-4.257c-0.007,0-0.013,0.006-0.013,0.013V13.317z M13.845,21.726c0,0.007,0.006,0.013,0.013,0.013h4.257c0.006,0,0.012-0.006,0.012-0.013v-3.564c0-0.007-0.006-0.012-0.012-0.012 h-4.257c-0.007,0-0.013,0.005-0.013,0.012V21.726z M8.244,27.332c0,0.006,0.006,0.012,0.012,0.012h4.257 c0.007,0,0.013-0.006,0.013-0.012v-3.564c0-0.007-0.006-0.012-0.013-0.012H8.256c-0.006,0-0.012,0.005-0.012,0.012V27.332z M-0.157,10.514c0,0.007,0.005,0.013,0.012,0.013h4.257c0.007,0,0.013-0.006,0.013-0.013V6.949c0-0.006-0.006-0.012-0.013-0.012 h-4.257c-0.007,0-0.012,0.006-0.012,0.012V10.514z M-8.559,18.923c0,0.007,0.006,0.012,0.012,0.012h4.257 c0.007,0,0.013-0.005,0.013-0.012v-3.564c0-0.007-0.006-0.012-0.013-0.012h-4.257c-0.006,0-0.012,0.005-0.012,0.012V18.923z M-16.96,24.528c0,0.007,0.006,0.013,0.012,0.013h4.257c0.007,0,0.013-0.006,0.013-0.013v-3.563c0-0.007-0.006-0.013-0.013-0.013 h-4.257c-0.006,0-0.012,0.006-0.012,0.013V24.528z M-28.162,13.317c0,0.006,0.006,0.012,0.013,0.012h4.257 c0.007,0,0.012-0.006,0.012-0.012V9.753c0-0.007-0.005-0.013-0.012-0.013h-4.257c-0.007,0-0.013,0.006-0.013,0.013V13.317z M-32.069,3.536l64.418,0.087c2.08,0,3.505-0.304,3.511-2.407c0.006-1.73-1.494-2.035-3.686-2.035H-32.18 c-1.257,0-2.913,0.243-2.921,2.381C-35.101,3.713-33.087,3.536-32.069,3.536z M24.684-7.273c-0.364,0-0.722-0.129-1.001-0.353 l-9.788-7.848L4.056-7.626C3.765-7.396,3.418-7.273,3.05-7.273c0,0,2.123,0,5.054,0.001c1.762,0,5.877-4.054,5.877-4.054 s4.132,4.056,5.92,4.056C24.681-7.27,24.684-7.273,24.684-7.273z M-35.428-13.072c0,2.088,1.161,2.577,3.271,2.577H2.484 l6.649-4.629l-41.116-0.058C-34.067-15.182-35.428-15.17-35.428-13.072z M35.069-26.32c0-0.006-0.005-0.011-0.011-0.011h-69.482 c-0.006,0-0.011,0.005-0.011,0.011v4.418c0,0.006,0.005,0.01,0.011,0.01h69.482c0.006,0,0.011-0.004,0.011-0.01V-26.32z M32.146-14.861l-13.49-0.088l6.593,4.454h6.897c1.047,0,3.539-0.042,3.539-2.145C35.685-14.721,33.213-14.861,32.146-14.861z" transform="matrix(1 0 0 -1 0 0)"></path></symbol><symbol id="sock" viewBox="-49.577 -49.86 99.153 99.72"><path d="M10.632,28.761c0,0,12.51-4.582,17.323-17.38c0,0,13.881-1.684,15.673-1.655 c1.791,0.027,6.959,1.691,5.773,4.138c-1.185,2.446-6.588,5.176-8.249,5.794c-1.66,0.618-5.453,2.701-5.773,9.104 c-0.32,6.404-7.447,7.313-9.074,7.449c-1.626,0.136-6.741,1.451-8.248,8.277c-1.508,6.826-8.196,6.561-8.249,2.483 C9.755,42.891,10.632,28.761,10.632,28.761z M-10.811-28.544c0,0-12.452,4.63-17.244,17.561c0,0-13.818,1.7-15.602,1.672 c-1.782-0.028-6.927-1.71-5.747-4.181c1.179-2.471,6.558-5.229,8.211-5.854s5.429-2.729,5.748-9.198s7.413-7.389,9.033-7.526 c1.618-0.137,6.71-1.465,8.211-8.36c1.5-6.897,8.159-6.63,8.211-2.51S-10.811-28.544-10.811-28.544z M-27.097,4.916L4.919-26.711 c0,0,17.772,2.628,22.209,21.065L-6.796,27.561C-6.796,27.561-23.71,23.896-27.097,4.916z M-4.863,28.5l32.726-32.27 c0,0,2.097,13.303-8.435,23.936C8.896,30.798-4.273,28.491-4.863,28.5z M2.638-27.045L-27.079,2.259c0,0-1.904-12.08,7.659-21.734 C-9.857-29.131,2.102-27.037,2.638-27.045z" transform="matrix(1 0 0 -1 0 0)"></path></symbol><symbol id="tuan" viewBox="-36.322 -36.836 72.644 73.672"><g transform="matrix(1 0 0 -1 0 0)"><path d="M-36.322-36.801v73.637h72.609v-61.649c0.455-8.444-3.543-12.443-11.987-11.987H-36.322z M-27.075-30.636 H21.56c3.88-0.226,5.704,1.481,5.48,5.138v56.169h-54.115V-30.636z M-23.993,11.834v5.822H5.462v8.904h8.906v-8.904h9.247v-5.822 h-9.247v-27.4c0.225-6.85-3.2-10.163-10.275-9.932h-6.85v5.479h4.452c2.741,0,3.993,1.253,3.768,3.768v28.085H2.037 c-2.74-16.9-11.077-29.231-25.003-36.99v6.164c8.675,7.306,14.155,17.58,16.44,30.826H-23.993L-23.993,11.834z"></path></g></symbol><symbol id="vip" viewBox="-46.547 -49.091 93.095 98.183"><path d="M6.754,8.515C3.799,7.298,1.092,5.676-1.37,3.65c-2.462-2.028-4.591-4.345-6.387-6.952 c-1.796-2.606-3.186-5.459-4.17-8.559c-0.985-3.099-1.478-6.357-1.478-9.774c0-3.013,0.391-5.894,1.173-8.646 c0.782-2.751,1.868-5.344,3.259-7.776h-2.347c-1.68,0-3.634,0.058-5.865,0.174c-2.229,0.116-4.532,0.275-6.907,0.478 c-2.375,0.203-4.734,0.435-7.081,0.695c-2.346,0.261-4.475,0.536-6.386,0.825c-1.912,0.29-3.533,0.579-4.866,0.869 c-1.333,0.289-2.172,0.579-2.52,0.869c-0.637,0.463-1.114,1.896-1.434,4.301c-0.318,2.403-0.188,5.488,0.391,9.253 c0.231,1.448,0.71,2.636,1.434,3.563c0.725,0.928,1.608,1.724,2.65,2.39s2.201,1.202,3.476,1.607s2.578,0.796,3.91,1.173 s2.621,0.782,3.865,1.217c1.246,0.435,2.391,0.97,3.434,1.607c1.217,0.753,2.157,1.492,2.823,2.216 c0.667,0.724,1.145,1.434,1.434,2.128c0.29,0.695,0.435,1.42,0.435,2.173S-22.557-0.927-22.614,0 c-0.116,1.332-0.579,2.39-1.39,3.171c-0.812,0.782-1.709,1.579-2.693,2.39c-0.464,0.406-0.884,0.971-1.26,1.694 c-0.377,0.725-0.71,1.463-1,2.216c-0.289,0.869-0.579,1.767-0.869,2.693c-0.404,0.116-0.811,0.319-1.216,0.608 c-0.348,0.29-0.724,0.695-1.13,1.217c-0.405,0.521-0.752,1.274-1.042,2.259c-0.29,0.985-0.406,1.883-0.349,2.693 c0.059,0.811,0.232,1.535,0.521,2.172c0.232,0.638,0.609,1.246,1.13,1.825c0,2.201,0.116,4.402,0.348,6.604 c0.231,1.854,0.638,3.852,1.216,5.995c0.58,2.144,1.479,4.055,2.694,5.735c1.158,1.621,2.403,2.938,3.735,3.952 c1.333,1.015,2.723,1.811,4.172,2.39c1.447,0.58,2.881,0.971,4.3,1.174c1.42,0.202,2.795,0.304,4.128,0.304 c1.68,0,3.345-0.188,4.995-0.564c1.651-0.377,3.201-0.884,4.649-1.521c1.447-0.638,2.736-1.361,3.866-2.173 c1.129-0.811,2.013-1.622,2.649-2.433c1.506-1.854,2.606-3.896,3.302-6.125c0.695-2.23,1.188-4.359,1.478-6.387 c0.289-2.317,0.435-4.663,0.435-7.038c0.405-0.289,0.724-0.666,0.956-1.129c0.23-0.406,0.419-0.928,0.564-1.564 c0.145-0.637,0.159-1.419,0.043-2.346c-0.115-1.274-0.362-2.274-0.738-2.998c-0.377-0.724-0.797-1.288-1.26-1.694 C9.1,12.657,8.549,12.338,7.97,12.165c-0.115-0.348-0.231-0.725-0.347-1.13L7.188,9.818C7.072,9.413,6.927,8.979,6.754,8.515 L6.754,8.515z M19.179,5.735c3.765,0,7.313-0.725,10.644-2.172c3.331-1.449,6.228-3.418,8.688-5.909 c2.462-2.491,4.417-5.401,5.865-8.731c1.448-3.331,2.172-6.879,2.172-10.645s-0.724-7.313-2.172-10.644s-3.403-6.241-5.865-8.731 c-2.461-2.491-5.357-4.446-8.688-5.865c-3.331-1.42-6.879-2.129-10.644-2.129c-3.823,0-7.4,0.71-10.731,2.129 c-3.33,1.419-6.227,3.374-8.688,5.865c-2.462,2.49-4.416,5.401-5.864,8.731c-1.449,3.331-2.173,6.878-2.173,10.644 s0.724,7.313,2.173,10.645c1.448,3.33,3.402,6.24,5.864,8.731s5.358,4.46,8.688,5.909C11.778,5.01,15.355,5.735,19.179,5.735 L19.179,5.735z M35.165-16.334c0.349,1.158,0.188,2.215-0.477,3.171c-0.667,0.956-1.55,1.637-2.65,2.042s-2.201,0.435-3.302,0.087 s-1.911-1.245-2.433-2.693c-0.29-0.984-0.565-1.897-0.826-2.737c-0.26-0.84-0.521-1.723-0.781-2.65 c-0.261-0.927-0.579-1.926-0.956-2.997s-0.854-2.303-1.434-3.693c-0.579-1.505-1.405-2.215-2.477-2.128s-1.896,0.709-2.477,1.868 c-0.637,1.158-1.23,2.403-1.78,3.735c-0.551,1.333-1.086,2.636-1.608,3.91c-0.521,1.274-0.984,2.434-1.391,3.476 c-0.404,1.043-0.752,1.883-1.042,2.521c-0.464,0.927-1.23,1.447-2.303,1.563c-1.071,0.116-2.114-0.043-3.128-0.478 s-1.854-1.115-2.52-2.042s-0.768-1.94-0.304-3.041c0.405-1.159,0.868-2.462,1.39-3.91s1.072-2.926,1.651-4.432 s1.129-2.982,1.65-4.431s0.984-2.693,1.391-3.736c0.869-2.201,2.187-3.853,3.953-4.953c1.768-1.101,3.62-1.68,5.561-1.737 s3.795,0.377,5.562,1.303c1.767,0.928,3.056,2.317,3.866,4.171c0.637,1.506,1.289,3.085,1.955,4.735s1.304,3.259,1.912,4.823 c0.607,1.563,1.173,3.069,1.693,4.518C34.384-18.623,34.818-17.377,35.165-16.334L35.165-16.334z" transform="matrix(1 0 0 -1 0 0)"></path></symbol><symbol id="wallet" viewBox="-37.412 -38.271 74.825 76.543"><path d="M14.767,38.014c1.446,0.195,2.944,0.439,4.381,0.054c1.273-0.307,2.413-1.153,3.027-2.318 c0.644-1.133,0.779-2.455,0.915-3.726c0.13-2.646,0.052-5.295,0.07-7.941c-1.188,0.002-2.376-0.002-3.565,0.004 c0.002,1.889,0,3.778,0.002,5.669c-0.023,1.357-0.018,2.749-0.437,4.054c-0.19,0.61-0.828,0.886-1.423,0.893 c-1.651,0.038-3.26-0.392-4.852-0.771c-11.647-3.189-23.293-6.383-34.928-9.613c-0.756-0.216-1.529-0.385-2.252-0.698 c-1.25-0.533-2.535-0.989-3.714-1.672c-1.528-0.73-2.963-1.697-4.057-3.006c1.712,1.117,3.772,1.632,5.807,1.578 c17.571-0.004,35.14-0.002,52.709-0.002c3.968,0.056,7.792-2.326,9.688-5.775c0.87-1.442,1.279-3.139,1.273-4.815 c0-12.238,0-24.477,0-36.715c0.007-1.381,0.009-2.794-0.384-4.13c-0.713-2.669-2.615-4.994-5.085-6.231 c-1.674-0.908-3.613-1.155-5.494-1.118c-17.63,0.001-35.26,0.001-52.891,0c-1.926-0.038-3.916,0.224-5.614,1.185 c-2.729,1.398-4.702,4.148-5.193,7.172c-0.111,0.861-0.181,1.729-0.158,2.6c0.003,9.805,0,19.607,0.001,29.41 c0.014,4.121-0.078,8.247,0.193,12.362c0.172,1.575,0.411,3.173,1.103,4.618c1.22,2.696,3.649,4.643,6.256,5.922 c1.601,0.911,3.333,1.557,5.042,2.237c9.811,2.739,19.635,5.437,29.459,8.129C8.019,36.251,11.349,37.311,14.767,38.014z M-27.803,16.853c-2.934-0.512-5.172-3.104-5.88-5.906c-0.189-1.372-0.049-2.768-0.157-4.147 c-0.014-11.481,0.002-22.963-0.007-34.444c0.014-0.873,0.061-1.764,0.343-2.598c0.609-1.931,2.199-3.517,4.13-4.123 c1.053-0.35,2.178-0.346,3.276-0.339c17.749,0.003,35.497-0.005,53.246,0.003c1.566-0.005,3.146,0.479,4.349,1.498 c1.552,1.246,2.376,3.24,2.35,5.211C33.855-15.41,33.848-2.828,33.85,9.755c0.111,3.147-2.347,5.951-5.252,6.873 c-1.073,0.402-2.235,0.323-3.359,0.327c-17.167,0.002-34.335,0-51.502,0.002C-26.779,16.953-27.295,16.935-27.803,16.853z M22.86-4.599c2.041,0.617,4.407-0.492,5.238-2.453c0.724-1.561,0.421-3.526-0.745-4.793c-1.099-1.252-2.941-1.774-4.539-1.292 c-1.858,0.504-3.236,2.34-3.205,4.268C19.586-6.932,20.983-5.088,22.86-4.599z" transform="matrix(1 0 0 -1 0 0)"></path></symbol></svg>